<svg width="268" height="46" viewBox="0 0 268 46" fill="none" xmlns="http://www.w3.org/2000/svg">
<path d="M46.6079 0H1.64844V14.5871H46.6079V0Z" fill="white"/>
<path d="M46.6075 32.7902V18.2031H35.6812C9.17933 18.2031 2.96116 36.9404 0.306039 44.9119C0.207335 45.1893 0.108574 45.5076 0 45.8466H14.9038C17.4504 39.2927 21.8923 32.749 35.6812 32.749L46.6075 32.7902Z" fill="white"/>
<path d="M68.1514 37.5462V5.97852H92.2846V10.5498H73.0374V20.3499H91.6036V24.8699H73.0374V37.5462H68.1514Z" fill="white"/>
<path d="M95.897 37.5462V5.97852H100.832V37.5462H95.897Z" fill="white"/>
<path d="M105.729 45.5583V40.9357H110.111C112.085 40.9357 112.924 40.3705 113.605 38.768L114.148 37.5456L103.054 14.124H108.532L114.276 26.5641L116.497 32.1731H116.862L118.984 26.5231L124.285 14.124H129.674L117.948 40.0932C116.092 44.2845 113.556 45.5583 108.936 45.5583H105.729Z" fill="white"/>
<path d="M132.071 37.5462V5.97852H136.957V19.3329H154.793V5.97852H159.639V37.5462H154.793V23.9247H136.957V37.5462H132.071Z" fill="white"/>
<path d="M163.212 25.8562C163.212 18.5627 168.237 13.6523 175.708 13.6523C183.18 13.6523 188.244 18.5627 188.244 25.8562C188.244 33.1498 183.22 38.019 175.708 38.019C168.197 38.019 163.212 33.0676 163.212 25.8562ZM183.447 25.8562C183.447 20.8637 181.186 18.1312 175.708 18.1312C170.23 18.1312 168.01 20.8637 168.01 25.8562C168.01 30.8487 170.27 33.499 175.708 33.499C181.147 33.499 183.447 30.8076 183.447 25.8562Z" fill="white"/>
<path d="M191.729 28.2182V14.124H196.575V26.8518C196.575 31.228 198.549 33.4469 203.277 33.4469C208.212 33.4469 210.561 30.8068 210.561 25.7219V14.124H215.417V37.5457H210.936V30.2931H210.66C209.939 34.2481 206.948 38.0182 201.155 38.0182C194.808 38.0182 191.729 33.6318 191.729 28.2182Z" fill="white"/>
<path d="M219.118 29.6263V29.4928H224.004V29.8626C224.004 32.9444 225.77 33.9202 230.478 33.9202C234.87 33.9202 236.183 32.9752 236.183 30.9001C236.183 28.8251 235.098 28.3627 231.88 27.8902L225.731 27.0376C221.467 26.4726 218.891 24.5927 218.891 20.6788C218.891 16.5697 222.464 13.6523 229.393 13.6523C236.322 13.6523 240.438 16.5286 240.438 22.0861V22.23H235.601V21.9526C235.601 19.1687 234.239 17.71 229.254 17.71C225.139 17.71 223.687 18.6551 223.687 20.8637C223.687 22.7025 224.596 23.36 227.991 23.8326L233.193 24.5927C238.542 25.2913 240.98 27.1815 240.98 31.044C240.98 35.4304 236.815 38.019 230.478 38.019C223.233 38.019 219.118 35.0503 219.118 29.6263Z" fill="white"/>
<path d="M243.606 25.8562C243.606 18.5627 248.403 13.6523 255.737 13.6523C262.715 13.6523 267.463 17.6586 267.463 24.7776C267.478 25.5216 267.419 26.2653 267.285 26.9965H248.176C248.364 31.5164 250.486 33.9202 255.698 33.9202C260.406 33.9202 262.35 32.3177 262.35 29.5338V29.164H267.236V29.5852C267.236 34.5777 262.528 38.019 255.836 38.019C248.453 38.019 243.606 33.684 243.606 25.8562ZM248.226 24.1612H262.843V24.0688C262.843 19.7338 260.445 17.6587 255.648 17.6587C250.673 17.6587 248.492 19.97 248.226 24.1612V24.1612Z" fill="white"/>
</svg>
